<svg width="800" height="453" viewBox="0 0 800 453" fill="none" xmlns="http://www.w3.org/2000/svg">
<path d="M688.514 287.866C715.051 313.775 743.059 338.15 766.861 366.672C777.375 379.347 787.328 392.425 794.943 407.134C805.734 428.044 795.961 451.053 777.212 452.302L660.665 452.248C630.606 454.742 606.626 442.642 586.464 422.089C570.328 405.653 555.384 388.161 539.868 371.17C533.508 364.227 526.85 357.692 518.897 352.527C502.987 342.2 489.176 345.361 480.084 361.955C470.825 378.833 468.723 397.52 467.814 416.33C466.565 443.773 458.27 450.989 430.703 452.245C371.789 455.023 315.876 446.111 263.934 416.391C218.14 390.191 182.631 353.202 151.722 311.328C91.545 229.792 45.4591 140.195 4.04033 48.0891C-5.28311 27.3375 1.53564 16.1984 24.4325 15.8031C62.4528 15.0641 100.468 15.1172 138.534 15.75C153.987 15.9766 164.217 24.8391 170.184 39.4375C190.754 90.0172 215.925 138.139 247.518 182.744C255.933 194.619 264.512 206.495 276.728 214.853C290.243 224.108 300.534 221.041 306.892 205.984C310.926 196.438 312.693 186.155 313.603 175.931C316.615 140.755 317.012 105.637 311.729 70.5844C308.486 48.7078 296.164 34.5453 274.334 30.4063C263.195 28.2953 264.853 24.15 270.247 17.7922C279.614 6.82656 288.425 0 305.989 0H437.704C458.44 4.09219 463.045 13.4078 465.884 34.2719L465.997 180.58C465.77 188.656 470.031 212.627 484.579 217.972C496.223 221.778 503.898 212.463 510.886 205.08C542.422 171.609 564.929 132.053 585.037 91.0938C593.961 73.0828 601.634 54.3797 609.07 35.6906C614.579 21.8234 623.225 15 638.845 15.3016L765.614 15.4141C769.373 15.4141 773.176 15.4688 776.817 16.0922C798.178 19.7328 804.033 28.9219 797.434 49.7813C787.039 82.5078 766.812 109.781 747.036 137.18C725.895 166.431 703.284 194.683 682.32 224.108C663.058 250.983 664.587 264.527 688.514 287.866Z" fill="#436EAB"/>
</svg>
